# Blender 4.0.2
# www.blender.org
mtllib OuterWireDodecahedron.mtl
o Icosphere
v 0.000000 -9.799999 0.000000
v -0.000000 -10.200001 0.000000
v 7.091352 -4.382751 5.152107
v 7.380795 -4.561638 5.362398
v -2.708602 -4.382754 8.336362
v -2.819158 -4.561642 8.676622
v -8.765377 -4.382713 0.000000
v -9.123148 -4.561599 0.000000
v -2.708602 -4.382754 -8.336362
v -2.819158 -4.561642 -8.676622
v 7.091352 -4.382751 -5.152107
v 7.380795 -4.561638 -5.362398
v 2.708602 4.382755 8.336362
v 2.819158 4.561643 8.676622
v -7.091352 4.382752 5.152107
v -7.380795 4.561639 5.362398
v -7.091352 4.382752 -5.152107
v -7.380795 4.561639 -5.362398
v 2.708602 4.382755 -8.336362
v 2.819158 4.561643 -8.676622
v 8.765377 4.382713 0.000000
v 9.123148 4.561600 0.000000
v -0.000000 9.799999 0.000000
v 0.000000 10.200001 0.000000
v -1.592064 -8.336413 4.899953
v -1.657047 -8.676675 5.099952
v 4.168162 -8.336411 3.028311
v 4.338292 -8.676673 3.151917
v 2.576115 -5.152229 7.928314
v 2.681262 -5.362524 8.251919
v 8.336349 -5.152212 0.000000
v 8.676608 -5.362506 0.000000
v 4.168162 -8.336411 -3.028311
v 4.338292 -8.676673 -3.151917
v -5.152151 -8.336387 0.000000
v -5.362444 -8.676647 0.000000
v -6.744256 -5.152215 4.899970
v -7.019531 -5.362509 5.099969
v -1.592064 -8.336413 -4.899953
v -1.657047 -8.676675 -5.099952
v -6.744256 -5.152215 -4.899970
v -7.019531 -5.362509 -5.099969
v 2.576115 -5.152229 -7.928314
v 2.681262 -5.362524 -8.251919
v 9.320367 0.000000 3.028323
v 9.700790 0.000000 3.151929
v 9.320367 0.000000 -3.028323
v 9.700790 0.000000 -3.151929
v 0.000000 0.000000 9.799999
v 0.000000 0.000000 10.200001
v 5.760299 0.000000 7.928364
v 5.995413 0.000000 8.251970
v -9.320367 0.000000 3.028323
v -9.700790 0.000000 3.151929
v -5.760299 0.000000 7.928364
v -5.995413 0.000000 8.251970
v -5.760299 0.000000 -7.928364
v -5.995413 0.000000 -8.251970
v -9.320367 0.000000 -3.028323
v -9.700790 0.000000 -3.151929
v 5.760299 0.000000 -7.928364
v 5.995413 0.000000 -8.251970
v 0.000000 0.000000 -9.799999
v 0.000000 0.000000 -10.200001
v 6.744256 5.152215 4.899970
v 7.019531 5.362509 5.099969
v -2.576115 5.152229 7.928314
v -2.681262 5.362524 8.251919
v -8.336349 5.152212 0.000000
v -8.676608 5.362506 0.000000
v -2.576115 5.152229 -7.928314
v -2.681262 5.362524 -8.251919
v 6.744256 5.152215 -4.899970
v 7.019531 5.362509 -5.099969
v 1.592064 8.336412 4.899953
v 1.657047 8.676674 5.099952
v 5.152151 8.336387 0.000000
v 5.362444 8.676647 0.000000
v -4.168162 8.336411 3.028311
v -4.338292 8.676673 3.151917
v -4.168162 8.336411 -3.028311
v -4.338292 8.676673 -3.151917
v 1.592064 8.336412 -4.899953
v 1.657047 8.676674 -5.099952
v 0.103135 -9.882810 0.317411
v 3.833909 -8.572803 3.027945
v -1.321865 -8.572805 4.703185
v 7.168887 -4.661285 4.965961
v 4.552443 -8.200068 3.065024
v 8.283241 -5.350003 0.354489
v -0.270005 -9.882809 0.196171
v -1.695006 -8.572803 4.581948
v -4.881516 -8.572780 0.196171
v -0.270005 -9.882809 -0.196171
v -4.881516 -8.572780 -0.196171
v -1.695006 -8.572803 -4.581948
v 0.103135 -9.882810 -0.317411
v -1.321865 -8.572805 -4.703185
v 3.833909 -8.572803 -3.027945
v 7.375154 -4.327539 4.965962
v 8.489509 -5.016258 0.354487
v 9.370269 -0.404689 3.065036
v -2.443871 -4.327543 8.548752
v 2.286301 -5.016274 8.183521
v -0.019492 -0.404687 9.858803
v -8.885566 -4.327502 0.317407
v -7.076530 -5.016257 4.703203
v -9.382318 -0.404686 3.027956
v -3.047619 -4.327542 -8.352584
v -6.659800 -5.016261 -5.276781
v -5.779093 -0.404683 -7.987397
v 7.002018 -4.327540 -5.479544
v 2.960580 -5.016274 -7.964433
v 5.810637 -0.404687 -7.964478
v 7.272023 -4.121272 5.283374
v 9.267141 -0.198415 3.382444
v 6.080642 -0.198415 7.768309
v -2.777615 -4.121274 8.548755
v -0.353234 -0.198415 9.858808
v -5.509087 -0.198415 8.183569
v -8.988701 -4.121230 0.000000
v -9.485453 -0.198415 2.710548
v -9.485453 -0.198415 -2.710548
v -2.777615 -4.121274 -8.548755
v -5.509087 -0.198415 -8.183569
v -0.353234 -0.198415 -9.858808
v 7.272023 -4.121272 -5.283374
v 6.080642 -0.198415 -7.768309
v 9.267141 -0.198415 -3.382444
v 2.880746 4.661288 8.231341
v 6.492922 5.350006 5.155542
v 1.881370 8.200074 5.155527
v -6.938275 4.661286 5.283373
v -2.896842 5.350019 7.768259
v -4.321829 8.200070 3.382436
v -7.168887 4.661285 -4.965961
v -8.283241 5.350003 -0.354489
v -4.552443 8.200068 -3.065024
v 2.507606 4.661289 -8.352579
v -2.222563 5.350019 -7.987350
v 1.508231 8.200072 -5.276768
v 8.718691 4.661249 -0.196171
v 6.909656 5.350003 -4.581964
v 5.484618 8.200046 -0.196171
v 4.881516 8.572780 -0.196171
v 1.695006 8.572803 -4.581948
v 0.270005 9.882809 -0.196171
v 5.182260 8.385107 -0.373666
v 6.624737 5.500185 -4.813134
v 1.956752 8.385131 -4.813119
v 6.492922 5.350006 -5.155542
v 2.880746 4.661288 -8.231341
v 1.881370 8.200074 -5.155527
v 1.321865 8.572805 -4.703185
v -3.833909 8.572803 -3.027945
v -0.103135 9.882810 -0.317411
v 1.245988 8.385132 -5.044058
v -2.530461 5.500201 -7.787809
v -3.972887 8.385130 -3.348315
v -2.896842 5.350019 -7.768259
v -6.938275 4.661286 -5.283373
v -4.321829 8.200070 -3.382436
v -4.064522 8.572803 -2.710533
v -4.064522 8.572803 2.710533
v -0.333749 9.882809 0.000000
v -4.412158 8.385130 -2.743707
v -8.188612 5.500186 0.000000
v -4.412158 8.385130 2.743707
v -8.283241 5.350003 0.354489
v -7.168887 4.661285 4.965961
v -4.552443 8.200068 3.065024
v -3.833909 8.572803 3.027945
v 1.321865 8.572805 4.703185
v -0.103135 9.882810 0.317411
v -3.972887 8.385130 3.348315
v -2.530461 5.500201 7.787809
v 1.245988 8.385132 5.044058
v -2.222563 5.350019 7.987350
v 2.507606 4.661289 8.352579
v 1.508231 8.200072 5.276768
v 1.695006 8.572803 4.581948
v 4.881516 8.572780 0.196171
v 0.270005 9.882809 0.196171
v 1.956752 8.385131 4.813119
v 6.624737 5.500185 4.813134
v 5.182260 8.385107 0.373666
v 6.909656 5.350003 4.581964
v 8.718691 4.661249 0.196171
v 5.484618 8.200046 0.196171
v 9.382318 0.404686 -3.027956
v 7.076530 5.016257 -4.703203
v 8.885566 4.327503 -0.317407
v 9.276611 0.196449 -3.348325
v 6.051116 0.196450 -7.787862
v 6.942601 4.864463 -5.044075
v 5.779093 0.404683 -7.987397
v 3.047619 4.327543 -8.352584
v 6.659800 5.016261 -5.276781
v 0.019492 0.404688 -9.858803
v -2.286301 5.016274 -8.183521
v 2.443871 4.327543 -8.548752
v -0.317862 0.196449 -9.857269
v -5.536811 0.196449 -8.161530
v -2.651875 4.864474 -8.161484
v -5.810637 0.404687 -7.964478
v -7.002018 4.327541 -5.479544
v -2.960580 5.016274 -7.964433
v -9.370269 0.404689 -3.065036
v -8.489509 5.016258 -0.354487
v -7.375154 4.327540 -4.965962
v -9.473059 0.196449 -2.743721
v -9.473059 0.196449 2.743721
v -8.581520 4.864454 0.000000
v -9.370269 0.404689 3.065036
v -7.375154 4.327540 4.965962
v -8.489509 5.016258 0.354487
v -5.810637 0.404687 7.964478
v -2.960580 5.016274 7.964433
v -7.002018 4.327541 5.479544
v -5.536811 0.196449 8.161530
v -0.317862 0.196449 9.857269
v -2.651875 4.864474 8.161484
v 0.019492 0.404688 9.858803
v 2.443871 4.327543 8.548752
v -2.286301 5.016274 8.183521
v 5.779093 0.404683 7.987397
v 6.659800 5.016261 5.276781
v 3.047619 4.327543 8.352584
v 6.051116 0.196450 7.787862
v 9.276611 0.196449 3.348325
v 6.942601 4.864463 5.044075
v 9.382318 0.404686 3.027956
v 8.885566 4.327503 0.317407
v 7.076530 5.016257 4.703203
v 5.509087 0.198416 -8.183569
v 0.353234 0.198416 -9.858808
v 2.777615 4.121274 -8.548755
v 5.536811 -0.196449 -8.161530
v 2.651875 -4.864474 -8.161484
v 0.317862 -0.196449 -9.857269
v 2.286301 -5.016274 -8.183521
v -2.443871 -4.327543 -8.548752
v -0.019492 -0.404687 -9.858803
v -6.080642 0.198416 -7.768309
v -9.267141 0.198416 -3.382444
v -7.272023 4.121273 -5.283374
v -6.051116 -0.196449 -7.787862
v -6.942601 -4.864462 -5.044075
v -9.276611 -0.196449 -3.348325
v -7.076530 -5.016257 -4.703203
v -8.885566 -4.327502 -0.317407
v -9.382318 -0.404686 -3.027956
v -9.267141 0.198416 3.382444
v -6.080642 0.198416 7.768309
v -7.272023 4.121273 5.283374
v -9.276611 -0.196449 3.348325
v -6.942601 -4.864462 5.044075
v -6.051116 -0.196449 7.787862
v -6.659800 -5.016261 5.276781
v -3.047619 -4.327542 8.352584
v -5.779093 -0.404683 7.987397
v 0.353234 0.198416 9.858808
v 5.509087 0.198416 8.183569
v 2.777615 4.121274 8.548755
v 0.317862 -0.196449 9.857269
v 2.651875 -4.864474 8.161484
v 5.536811 -0.196449 8.161530
v 2.960580 -5.016274 7.964433
v 7.002018 -4.327540 5.479544
v 5.810637 -0.404687 7.964478
v 9.485453 0.198416 2.710548
v 9.485453 0.198416 -2.710548
v 8.988701 4.121231 0.000000
v 9.473059 -0.196449 2.743721
v 8.581520 -4.864453 0.000000
v 9.473059 -0.196449 -2.743721
v 8.489509 -5.016258 -0.354487
v 7.375154 -4.327539 -4.965962
v 9.370269 -0.404689 -3.065036
v 4.321829 -8.200070 -3.382436
v 2.896842 -5.350019 -7.768259
v 6.938275 -4.661286 -5.283373
v 3.972887 -8.385130 -3.348315
v -1.245988 -8.385133 -5.044058
v 2.530461 -5.500201 -7.787809
v -1.508231 -8.200073 -5.276768
v -2.507606 -4.661289 -8.352579
v 2.222563 -5.350019 -7.987350
v -1.881370 -8.200074 -5.155527
v -6.492923 -5.350006 -5.155542
v -2.880746 -4.661288 -8.231341
v -1.956752 -8.385132 -4.813119
v -5.182260 -8.385107 -0.373666
v -6.624737 -5.500185 -4.813134
v -5.484618 -8.200046 -0.196171
v -8.718691 -4.661249 -0.196171
v -6.909656 -5.350003 -4.581964
v -5.484618 -8.200046 0.196171
v -6.909656 -5.350003 4.581964
v -8.718691 -4.661249 0.196171
v -5.182260 -8.385107 0.373666
v -1.956752 -8.385132 4.813119
v -6.624737 -5.500185 4.813134
v -1.881370 -8.200074 5.155527
v -2.880746 -4.661288 8.231341
v -6.492923 -5.350006 5.155542
v 8.283241 -5.350003 -0.354489
v 4.552443 -8.200068 -3.065024
v 7.168887 -4.661285 -4.965961
v 8.188612 -5.500186 0.000000
v 4.412158 -8.385130 2.743707
v 4.412158 -8.385130 -2.743707
v 4.064522 -8.572803 2.710533
v 0.333749 -9.882809 0.000000
v 4.064522 -8.572803 -2.710533
v -1.508231 -8.200073 5.276768
v 2.222563 -5.350019 7.987350
v -2.507606 -4.661289 8.352579
v -1.245988 -8.385133 5.044058
v 3.972887 -8.385130 3.348315
v 2.530461 -5.500201 7.787809
v 4.321829 -8.200070 3.382436
v 6.938275 -4.661286 5.283373
v 2.896842 -5.350019 7.768259
s 0
usemtl OuterWireDodecahedronMaterial
f 86 1 85
f 86 2 28
f 86 25 27
f 86 26 87
f 87 1 25
f 87 2 85
f 89 3 88
f 89 4 28
f 89 31 27
f 89 32 90
f 90 3 31
f 90 4 88
f 92 1 91
f 92 2 26
f 93 25 92
f 93 26 36
f 93 1 35
f 93 2 91
f 95 1 94
f 95 2 36
f 95 39 35
f 95 40 96
f 96 1 39
f 96 2 94
f 98 1 97
f 98 2 40
f 99 39 98
f 98 34 99
f 99 1 33
f 99 2 97
f 101 3 100
f 101 4 32
f 102 31 101
f 102 32 46
f 102 3 45
f 102 4 100
f 104 5 103
f 104 6 30
f 105 29 104
f 105 30 50
f 105 5 49
f 105 6 103
f 107 7 106
f 107 8 38
f 108 37 107
f 107 54 108
f 108 7 53
f 108 8 106
f 110 9 109
f 110 10 42
f 111 41 110
f 111 42 58
f 111 9 57
f 111 10 109
f 113 11 112
f 113 12 44
f 114 43 113
f 114 44 62
f 114 11 61
f 114 12 112
f 116 3 115
f 116 4 46
f 117 45 116
f 117 46 52
f 117 3 51
f 117 4 115
f 119 5 118
f 119 6 50
f 120 49 119
f 120 50 56
f 120 5 55
f 120 6 118
f 122 7 121
f 122 8 54
f 123 53 122
f 122 60 123
f 123 7 59
f 123 8 121
f 125 9 124
f 125 10 58
f 125 63 57
f 125 64 126
f 126 9 63
f 126 10 124
f 128 11 127
f 128 12 62
f 128 47 61
f 128 48 129
f 129 11 47
f 129 12 127
f 131 13 130
f 131 14 66
f 132 65 131
f 131 76 132
f 132 13 75
f 132 14 130
f 134 15 133
f 134 16 68
f 135 67 134
f 135 68 80
f 135 15 79
f 135 16 133
f 137 17 136
f 137 18 70
f 138 69 137
f 138 70 82
f 138 17 81
f 138 18 136
f 140 19 139
f 140 20 72
f 141 71 140
f 141 72 84
f 141 19 83
f 141 20 139
f 143 21 142
f 143 22 74
f 144 73 143
f 143 78 144
f 144 21 77
f 144 22 142
f 145 83 77
f 145 84 146
f 146 23 83
f 146 24 147
f 145 23 147
f 145 24 78
f 149 77 148
f 149 78 74
f 150 73 149
f 149 84 150
f 150 77 83
f 150 78 148
f 151 19 73
f 151 20 152
f 153 19 152
f 153 20 84
f 151 83 153
f 151 84 74
f 155 83 154
f 154 82 155
f 155 23 81
f 155 24 156
f 154 23 156
f 154 24 84
f 158 83 157
f 157 72 158
f 158 81 71
f 158 82 159
f 159 83 81
f 157 82 84
f 160 17 71
f 160 18 161
f 162 17 161
f 162 18 82
f 162 71 81
f 162 72 160
f 164 81 163
f 163 80 164
f 164 23 79
f 164 24 165
f 163 23 165
f 163 24 82
f 167 81 166
f 167 82 70
f 167 79 69
f 167 80 168
f 166 79 168
f 168 82 166
f 169 15 69
f 169 16 170
f 171 15 170
f 171 16 80
f 171 69 79
f 171 70 169
f 172 75 79
f 173 80 76
f 173 23 75
f 173 24 174
f 172 23 174
f 172 24 80
f 176 79 175
f 176 80 68
f 176 75 67
f 176 76 177
f 175 75 177
f 177 80 175
f 178 13 67
f 178 14 179
f 180 13 179
f 180 14 76
f 180 67 75
f 180 68 178
f 182 75 181
f 182 76 78
f 182 23 77
f 182 24 183
f 181 23 183
f 181 24 76
f 185 75 184
f 184 66 185
f 186 65 185
f 185 78 186
f 184 77 186
f 184 78 76
f 187 21 65
f 187 22 188
f 189 21 188
f 189 22 78
f 189 65 77
f 189 66 187
f 191 47 190
f 190 74 191
f 191 21 73
f 191 22 192
f 190 21 192
f 190 22 48
f 194 47 193
f 194 48 62
f 195 61 194
f 195 62 74
f 195 47 73
f 195 48 193
f 196 19 61
f 196 20 197
f 198 19 197
f 198 20 74
f 196 73 198
f 196 74 62
f 199 71 63
f 199 72 200
f 200 19 71
f 200 20 201
f 199 19 201
f 199 20 64
f 202 57 63
f 202 58 203
f 204 57 203
f 204 58 72
f 204 63 71
f 204 64 202
f 205 17 57
f 205 18 206
f 207 17 206
f 207 18 72
f 205 71 207
f 205 72 58
f 208 69 59
f 208 70 209
f 209 17 69
f 209 18 210
f 208 17 210
f 208 18 60
f 212 59 211
f 211 54 212
f 213 53 212
f 213 54 70
f 213 59 69
f 213 60 211
f 214 15 53
f 214 16 215
f 216 15 215
f 216 16 70
f 214 69 216
f 214 70 54
f 217 67 55
f 217 68 218
f 218 15 67
f 218 16 219
f 217 15 219
f 217 16 56
f 221 55 220
f 221 56 50
f 222 49 221
f 222 50 68
f 222 55 67
f 222 56 220
f 223 13 49
f 223 14 224
f 225 13 224
f 225 14 68
f 223 67 225
f 223 68 50
f 226 65 51
f 226 66 227
f 227 13 65
f 227 14 228
f 226 13 228
f 226 14 52
f 230 51 229
f 229 46 230
f 231 45 230
f 231 46 66
f 229 65 231
f 229 66 52
f 232 21 45
f 232 22 233
f 234 21 233
f 234 22 66
f 232 65 234
f 232 66 46
f 235 63 61
f 235 64 236
f 236 19 63
f 236 20 237
f 235 19 237
f 235 20 62
f 239 61 238
f 239 62 44
f 239 63 43
f 239 64 240
f 240 61 63
f 240 62 238
f 241 9 43
f 241 10 242
f 243 9 242
f 243 10 64
f 243 43 63
f 243 44 241
f 244 59 57
f 244 60 245
f 245 17 59
f 245 18 246
f 244 17 246
f 244 18 58
f 248 57 247
f 248 58 42
f 249 41 248
f 248 60 249
f 247 59 249
f 247 60 58
f 250 7 41
f 250 8 251
f 252 7 251
f 252 8 60
f 252 41 59
f 252 42 250
f 254 53 253
f 254 54 56
f 254 15 55
f 254 16 255
f 253 15 255
f 253 16 54
f 257 53 256
f 256 38 257
f 258 37 257
f 257 56 258
f 256 55 258
f 258 54 256
f 259 5 37
f 259 6 260
f 261 5 260
f 261 6 56
f 261 37 55
f 261 38 259
f 263 49 262
f 263 50 52
f 263 13 51
f 263 14 264
f 262 13 264
f 262 14 50
f 266 49 265
f 266 50 30
f 266 51 29
f 266 52 267
f 265 51 267
f 265 52 50
f 268 3 29
f 268 4 269
f 270 3 269
f 270 4 52
f 270 29 51
f 270 30 268
f 272 45 271
f 271 48 272
f 272 21 47
f 272 22 273
f 271 21 273
f 271 22 46
f 275 45 274
f 275 46 32
f 275 47 31
f 275 48 276
f 274 47 276
f 276 46 274
f 277 11 31
f 277 12 278
f 279 11 278
f 279 12 48
f 279 31 47
f 279 32 277
f 280 43 33
f 280 44 281
f 281 11 43
f 281 12 282
f 280 11 282
f 280 12 34
f 284 33 283
f 284 34 40
f 285 39 284
f 285 40 44
f 285 33 43
f 285 34 283
f 286 9 39
f 286 10 287
f 288 9 287
f 288 10 44
f 286 43 288
f 286 44 40
f 290 39 289
f 289 42 290
f 290 9 41
f 290 10 291
f 289 9 291
f 289 10 40
f 292 35 39
f 292 36 293
f 294 35 293
f 293 42 294
f 292 41 294
f 292 42 40
f 295 7 35
f 295 8 296
f 297 7 296
f 297 8 42
f 295 41 297
f 297 36 295
f 298 37 35
f 298 38 299
f 299 7 37
f 299 8 300
f 298 7 300
f 298 8 36
f 302 35 301
f 302 36 26
f 302 37 25
f 302 38 303
f 301 37 303
f 303 36 301
f 304 5 25
f 304 6 305
f 306 5 305
f 306 6 38
f 304 37 306
f 306 26 304
f 308 31 307
f 308 32 34
f 308 11 33
f 308 12 309
f 307 11 309
f 307 12 32
f 310 27 31
f 310 28 311
f 312 27 311
f 311 34 312
f 310 33 312
f 310 34 32
f 313 1 27
f 313 2 314
f 315 1 314
f 315 2 34
f 313 33 315
f 315 28 313
f 316 29 25
f 316 30 317
f 317 5 29
f 317 6 318
f 316 5 318
f 316 6 26
f 319 27 25
f 319 28 320
f 321 27 320
f 321 28 30
f 319 29 321
f 321 26 319
f 322 3 27
f 322 4 323
f 324 3 323
f 324 4 30
f 322 29 324
f 322 30 28
f 86 27 1
f 86 85 2
f 86 87 25
f 86 28 26
f 87 85 1
f 87 26 2
f 89 27 3
f 89 88 4
f 89 90 31
f 89 28 32
f 90 88 3
f 90 32 4
f 92 25 1
f 92 91 2
f 93 35 25
f 93 92 26
f 93 91 1
f 93 36 2
f 95 35 1
f 95 94 2
f 95 96 39
f 95 36 40
f 96 94 1
f 96 40 2
f 98 39 1
f 98 97 2
f 99 33 39
f 98 40 34
f 99 97 1
f 99 34 2
f 101 31 3
f 101 100 4
f 102 45 31
f 102 101 32
f 102 100 3
f 102 46 4
f 104 29 5
f 104 103 6
f 105 49 29
f 105 104 30
f 105 103 5
f 105 50 6
f 107 37 7
f 107 106 8
f 108 53 37
f 107 38 54
f 108 106 7
f 108 54 8
f 110 41 9
f 110 109 10
f 111 57 41
f 111 110 42
f 111 109 9
f 111 58 10
f 113 43 11
f 113 112 12
f 114 61 43
f 114 113 44
f 114 112 11
f 114 62 12
f 116 45 3
f 116 115 4
f 117 51 45
f 117 116 46
f 117 115 3
f 117 52 4
f 119 49 5
f 119 118 6
f 120 55 49
f 120 119 50
f 120 118 5
f 120 56 6
f 122 53 7
f 122 121 8
f 123 59 53
f 122 54 60
f 123 121 7
f 123 60 8
f 125 57 9
f 125 124 10
f 125 126 63
f 125 58 64
f 126 124 9
f 126 64 10
f 128 61 11
f 128 127 12
f 128 129 47
f 128 62 48
f 129 127 11
f 129 48 12
f 131 65 13
f 131 130 14
f 132 75 65
f 131 66 76
f 132 130 13
f 132 76 14
f 134 67 15
f 134 133 16
f 135 79 67
f 135 134 68
f 135 133 15
f 135 80 16
f 137 69 17
f 137 136 18
f 138 81 69
f 138 137 70
f 138 136 17
f 138 82 18
f 140 71 19
f 140 139 20
f 141 83 71
f 141 140 72
f 141 139 19
f 141 84 20
f 143 73 21
f 143 142 22
f 144 77 73
f 143 74 78
f 144 142 21
f 144 78 22
f 145 146 83
f 145 78 84
f 146 147 23
f 146 84 24
f 145 77 23
f 145 147 24
f 149 73 77
f 149 148 78
f 150 83 73
f 149 74 84
f 150 148 77
f 150 84 78
f 151 152 19
f 151 74 20
f 153 83 19
f 153 152 20
f 151 73 83
f 151 153 84
f 155 81 83
f 154 84 82
f 155 156 23
f 155 82 24
f 154 83 23
f 154 156 24
f 158 71 83
f 157 84 72
f 158 159 81
f 158 72 82
f 159 157 83
f 157 159 82
f 160 161 17
f 160 72 18
f 162 81 17
f 162 161 18
f 162 160 71
f 162 82 72
f 164 79 81
f 163 82 80
f 164 165 23
f 164 80 24
f 163 81 23
f 163 165 24
f 167 69 81
f 167 166 82
f 167 168 79
f 167 70 80
f 166 81 79
f 168 80 82
f 169 170 15
f 169 70 16
f 171 79 15
f 171 170 16
f 171 169 69
f 171 80 70
f 172 173 75
f 173 172 80
f 173 174 23
f 173 76 24
f 172 79 23
f 172 174 24
f 176 67 79
f 176 175 80
f 176 177 75
f 176 68 76
f 175 79 75
f 177 76 80
f 178 179 13
f 178 68 14
f 180 75 13
f 180 179 14
f 180 178 67
f 180 76 68
f 182 77 75
f 182 181 76
f 182 183 23
f 182 78 24
f 181 75 23
f 181 183 24
f 185 65 75
f 184 76 66
f 186 77 65
f 185 66 78
f 184 75 77
f 184 186 78
f 187 188 21
f 187 66 22
f 189 77 21
f 189 188 22
f 189 187 65
f 189 78 66
f 191 73 47
f 190 48 74
f 191 192 21
f 191 74 22
f 190 47 21
f 190 192 22
f 194 61 47
f 194 193 48
f 195 73 61
f 195 194 62
f 195 193 47
f 195 74 48
f 196 197 19
f 196 62 20
f 198 73 19
f 198 197 20
f 196 61 73
f 196 198 74
f 199 200 71
f 199 64 72
f 200 201 19
f 200 72 20
f 199 63 19
f 199 201 20
f 202 203 57
f 202 64 58
f 204 71 57
f 204 203 58
f 204 202 63
f 204 72 64
f 205 206 17
f 205 58 18
f 207 71 17
f 207 206 18
f 205 57 71
f 205 207 72
f 208 209 69
f 208 60 70
f 209 210 17
f 209 70 18
f 208 59 17
f 208 210 18
f 212 53 59
f 211 60 54
f 213 69 53
f 213 212 54
f 213 211 59
f 213 70 60
f 214 215 15
f 214 54 16
f 216 69 15
f 216 215 16
f 214 53 69
f 214 216 70
f 217 218 67
f 217 56 68
f 218 219 15
f 218 68 16
f 217 55 15
f 217 219 16
f 221 49 55
f 221 220 56
f 222 67 49
f 222 221 50
f 222 220 55
f 222 68 56
f 223 224 13
f 223 50 14
f 225 67 13
f 225 224 14
f 223 49 67
f 223 225 68
f 226 227 65
f 226 52 66
f 227 228 13
f 227 66 14
f 226 51 13
f 226 228 14
f 230 45 51
f 229 52 46
f 231 65 45
f 231 230 46
f 229 51 65
f 229 231 66
f 232 233 21
f 232 46 22
f 234 65 21
f 234 233 22
f 232 45 65
f 232 234 66
f 235 236 63
f 235 62 64
f 236 237 19
f 236 64 20
f 235 61 19
f 235 237 20
f 239 43 61
f 239 238 62
f 239 240 63
f 239 44 64
f 240 238 61
f 240 64 62
f 241 242 9
f 241 44 10
f 243 63 9
f 243 242 10
f 243 241 43
f 243 64 44
f 244 245 59
f 244 58 60
f 245 246 17
f 245 60 18
f 244 57 17
f 244 246 18
f 248 41 57
f 248 247 58
f 249 59 41
f 248 42 60
f 247 57 59
f 247 249 60
f 250 251 7
f 250 42 8
f 252 59 7
f 252 251 8
f 252 250 41
f 252 60 42
f 254 55 53
f 254 253 54
f 254 255 15
f 254 56 16
f 253 53 15
f 253 255 16
f 257 37 53
f 256 54 38
f 258 55 37
f 257 38 56
f 256 53 55
f 258 56 54
f 259 260 5
f 259 38 6
f 261 55 5
f 261 260 6
f 261 259 37
f 261 56 38
f 263 51 49
f 263 262 50
f 263 264 13
f 263 52 14
f 262 49 13
f 262 264 14
f 266 29 49
f 266 265 50
f 266 267 51
f 266 30 52
f 265 49 51
f 265 267 52
f 268 269 3
f 268 30 4
f 270 51 3
f 270 269 4
f 270 268 29
f 270 52 30
f 272 47 45
f 271 46 48
f 272 273 21
f 272 48 22
f 271 45 21
f 271 273 22
f 275 31 45
f 275 274 46
f 275 276 47
f 275 32 48
f 274 45 47
f 276 48 46
f 277 278 11
f 277 32 12
f 279 47 11
f 279 278 12
f 279 277 31
f 279 48 32
f 280 281 43
f 280 34 44
f 281 282 11
f 281 44 12
f 280 33 11
f 280 282 12
f 284 39 33
f 284 283 34
f 285 43 39
f 285 284 40
f 285 283 33
f 285 44 34
f 286 287 9
f 286 40 10
f 288 43 9
f 288 287 10
f 286 39 43
f 286 288 44
f 290 41 39
f 289 40 42
f 290 291 9
f 290 42 10
f 289 39 9
f 289 291 10
f 292 293 35
f 292 40 36
f 294 41 35
f 293 36 42
f 292 39 41
f 292 294 42
f 295 296 7
f 295 36 8
f 297 41 7
f 297 296 8
f 295 35 41
f 297 42 36
f 298 299 37
f 298 36 38
f 299 300 7
f 299 38 8
f 298 35 7
f 298 300 8
f 302 25 35
f 302 301 36
f 302 303 37
f 302 26 38
f 301 35 37
f 303 38 36
f 304 305 5
f 304 26 6
f 306 37 5
f 306 305 6
f 304 25 37
f 306 38 26
f 308 33 31
f 308 307 32
f 308 309 11
f 308 34 12
f 307 31 11
f 307 309 12
f 310 311 27
f 310 32 28
f 312 33 27
f 311 28 34
f 310 31 33
f 310 312 34
f 313 314 1
f 313 28 2
f 315 33 1
f 315 314 2
f 313 27 33
f 315 34 28
f 316 317 29
f 316 26 30
f 317 318 5
f 317 30 6
f 316 25 5
f 316 318 6
f 319 320 27
f 319 26 28
f 321 29 27
f 321 320 28
f 319 25 29
f 321 30 26
f 322 323 3
f 322 28 4
f 324 29 3
f 324 323 4
f 322 27 29
f 322 324 30
