# Blender 4.0.2
# www.blender.org
mtllib VoronoiSphere.mtl
o Icosphere
v -9.096725 -2.001785 1.661626
v -1.537161 -1.678256 9.159138
v -1.511576 -9.174559 1.673296
v -6.642632 -4.443534 5.537777
v -6.684320 -5.574756 4.502911
v -6.826940 -4.876468 4.912085
v -5.563703 -5.549245 5.550461
v -5.990641 -4.876468 5.735178
v -5.990641 -5.735334 4.912085
v -6.300483 -5.180315 5.239691
v -4.973291 -5.731690 5.742565
v -5.031851 -5.024839 6.328693
v -4.994659 -6.298702 4.991309
v -6.682355 -0.861406 6.701733
v -7.313255 -3.211085 5.066173
v -7.596022 -0.934880 5.433104
v -7.362612 -5.110810 3.218279
v -6.685562 -6.690715 0.855530
v -7.695234 -5.501798 1.060907
v -4.702502 -4.690821 6.852366
v -5.092574 -3.152685 7.301780
v -5.556869 -1.139692 7.705055
v -4.640515 -6.766887 4.634951
v -5.954189 -3.631595 6.404124
v -6.556907 -1.906994 6.543427
v -5.197996 -7.159556 3.062237
v -5.928114 -6.404620 3.611665
v -5.535380 -7.708021 1.128719
v -6.541098 -6.538314 1.895264
v -3.184691 -5.183853 7.379630
v -3.112271 -7.244288 5.265197
v -3.783014 -6.117004 6.103923
v -0.944572 -6.664048 6.660232
v -1.109907 -5.516467 7.642630
v -1.218945 -7.711747 5.558552
v -2.073318 -6.619183 6.618533
v -8.405884 -2.956187 2.974543
v -2.758363 -2.793451 8.525173
v -3.072364 -8.339700 2.907877
v -9.068544 1.770439 1.778029
v -1.514670 1.190778 9.218890
v -6.479915 2.091444 6.407467
v -5.596550 5.378892 5.475495
v -8.417663 2.947485 2.946235
v -6.440634 6.367783 2.249730
v -2.807611 2.759053 8.423906
v -2.139379 6.378030 6.435573
v -2.802393 8.503862 2.762964
v -1.346754 9.220019 1.614621
v -9.095906 -2.001785 -1.661263
v -1.511576 -9.174428 -1.673314
v -6.466742 -6.388877 -2.077101
v -8.405372 -2.956187 -2.974076
v -5.693285 -5.398019 -5.413363
v -6.383211 -2.100913 -6.416633
v -3.072364 -8.336659 -2.907896
v -2.222100 -6.412961 -6.441669
v -2.759466 -2.793348 -8.521322
v -1.536898 -1.678094 -9.156413
v -9.067663 1.770439 -1.777636
v -8.420928 2.947485 -2.945768
v -6.440172 6.367480 -2.248860
v -6.482496 2.092943 -6.409420
v -5.595387 5.375667 -5.472486
v -2.802613 8.505548 -2.763300
v -2.807603 2.759423 -8.424639
v -2.139379 6.380472 -6.436698
v -1.347025 9.218167 -1.615135
v -1.514660 1.190686 -9.217941
v 1.514667 -1.191147 9.221162
v 1.340174 -9.218102 1.607931
v 2.138179 -6.379662 6.437244
v 2.807594 -2.759673 8.423668
v 2.802595 -8.504650 2.763281
v 5.596357 -5.377609 5.474389
v 6.482617 -2.091671 6.409847
v 6.438692 -6.364292 2.249076
v 8.420112 -2.947510 2.945749
v 9.064777 -1.770464 1.777618
v 1.537085 1.678225 9.158202
v 2.762326 2.793417 8.524405
v 2.225904 6.414967 6.443031
v 3.072094 8.338437 2.907692
v 6.382735 2.100888 6.415202
v 5.693421 5.394220 5.408717
v 8.406631 2.956161 2.976723
v 6.467962 6.390081 2.078291
v 1.518368 9.177099 1.679128
v 9.092381 2.002907 1.664597
v 1.340174 -9.218382 -1.607949
v 2.802596 -8.505620 -2.763300
v 2.139336 -6.377814 -6.435509
v 2.807560 -2.759476 -8.425344
v 6.440239 -6.367897 -2.245140
v 8.419954 -2.947510 -2.945768
v 5.595978 -5.377360 -5.474087
v 6.481404 -2.088949 -6.408383
v 1.514617 -1.190767 -9.215974
v 9.067621 -1.770464 -1.777636
v 2.762906 6.442475 -6.434857
v 4.230803 6.519312 -5.371751
v 4.260776 5.417259 -6.532239
v 3.877399 6.087008 -6.087141
v 2.073275 6.619158 -6.621676
v 1.218903 7.711670 -5.558795
v 1.109865 5.514503 -7.640352
v 0.944529 6.664023 -6.660251
v 3.112228 7.246238 -5.265685
v 3.192872 5.197240 -7.385717
v 6.561173 1.906969 -6.532466
v 5.958774 3.640359 -6.391952
v 5.565867 1.139667 -7.712216
v 5.096635 3.156780 -7.308557
v 7.594042 0.934854 -5.430809
v 7.308335 3.211060 -5.063217
v 6.681962 0.861381 -6.701339
v 3.072321 8.338230 -2.907896
v 2.762323 2.793421 -8.520866
v 8.403761 2.956161 -2.976742
v 6.466825 6.389635 -2.077574
v 5.693566 5.394923 -5.409476
v 1.518552 9.177281 -1.679395
v 1.537083 1.678228 -9.156376
v 9.096574 2.002907 -1.664616
s 0
usemtl Material.001
f 17 15 37
f 24 4 8
f 25 21 22
f 25 15 24
f 25 14 16
f 10 7 8
f 10 5 9
f 10 4 6
f 27 5 17
f 29 26 27
f 29 18 28
f 29 17 19
f 12 7 11
f 24 20 21
f 13 7 9
f 27 23 13
f 21 30 38
f 32 20 12
f 32 23 31
f 39 23 26
f 36 33 34
f 36 31 35
f 36 30 32
f 44 16 42
f 40 37 44
f 44 43 45
f 38 41 46
f 46 22 38
f 43 46 47
f 48 43 47
f 50 19 1
f 54 53 55
f 56 3 39
f 56 28 52
f 54 56 52
f 58 54 55
f 60 1 40
f 60 44 61
f 62 44 45
f 60 53 50
f 63 53 61
f 64 61 62
f 62 48 65
f 64 65 67
f 64 66 63
f 66 55 63
f 68 48 49
f 69 58 66
f 73 34 72
f 73 2 38
f 74 3 71
f 74 35 39
f 73 75 76
f 74 75 72
f 78 75 77
f 41 70 80
f 46 80 81
f 47 81 82
f 48 82 83
f 81 70 73
f 84 73 76
f 85 81 84
f 83 85 87
f 86 85 84
f 86 76 78
f 88 48 83
f 86 79 89
f 51 71 3
f 91 51 56
f 57 91 56
f 58 92 57
f 91 71 90
f 94 74 91
f 96 91 92
f 93 96 92
f 96 95 94
f 94 78 77
f 59 93 58
f 95 79 78
f 105 65 117
f 106 66 67
f 107 104 106
f 108 104 105
f 109 104 100
f 120 83 87
f 108 120 121
f 109 113 118
f 112 93 118
f 113 110 112
f 115 120 119
f 115 110 111
f 116 110 114
f 114 95 97
f 122 49 88
f 122 65 68
f 117 88 83
f 123 66 118
f 69 98 59
f 98 118 93
f 99 89 79
f 120 89 124
f 119 99 95
f 15 16 37
f 19 17 37
f 1 19 37
f 6 4 15
f 5 6 17
f 8 12 24
f 27 13 9
f 22 21 38
f 12 11 32
f 32 11 13
f 39 26 28
f 30 34 38
f 39 35 31
f 16 14 42
f 14 22 42
f 53 52 50
f 18 19 52
f 52 28 18
f 34 33 72
f 72 33 35
f 87 86 89
f 107 106 67
f 67 105 107
f 105 117 108
f 109 118 106
f 108 101 103
f 108 103 100
f 109 103 102
f 100 103 109
f 121 101 108
f 121 102 103
f 103 101 121
f 121 111 113
f 109 102 121
f 113 112 118
f 121 115 111
f 116 114 97
f 116 97 112
f 115 119 114
f 124 119 120
f 17 6 15
f 24 15 4
f 25 24 21
f 25 16 15
f 25 22 14
f 10 9 7
f 10 6 5
f 10 8 4
f 27 9 5
f 29 28 26
f 29 19 18
f 29 27 17
f 12 8 7
f 24 12 20
f 13 11 7
f 27 26 23
f 21 20 30
f 32 30 20
f 32 13 23
f 39 31 23
f 36 35 33
f 36 32 31
f 36 34 30
f 44 37 16
f 40 1 37
f 44 42 43
f 38 2 41
f 46 42 22
f 43 42 46
f 48 45 43
f 50 52 19
f 54 52 53
f 56 51 3
f 56 39 28
f 54 57 56
f 58 57 54
f 60 50 1
f 60 40 44
f 62 61 44
f 60 61 53
f 63 55 53
f 64 63 61
f 62 45 48
f 64 62 65
f 64 67 66
f 66 58 55
f 68 65 48
f 69 59 58
f 73 38 34
f 73 70 2
f 74 39 3
f 74 72 35
f 73 72 75
f 74 77 75
f 78 76 75
f 41 2 70
f 46 41 80
f 47 46 81
f 48 47 82
f 81 80 70
f 84 81 73
f 85 82 81
f 83 82 85
f 86 87 85
f 86 84 76
f 88 49 48
f 86 78 79
f 51 90 71
f 91 90 51
f 57 92 91
f 58 93 92
f 91 74 71
f 94 77 74
f 96 94 91
f 93 97 96
f 96 97 95
f 94 95 78
f 59 98 93
f 95 99 79
f 105 67 65
f 106 118 66
f 107 105 104
f 108 100 104
f 109 106 104
f 120 117 83
f 108 117 120
f 109 121 113
f 112 97 93
f 113 111 110
f 115 121 120
f 115 114 110
f 116 112 110
f 114 119 95
f 122 68 49
f 122 117 65
f 117 122 88
f 123 69 66
f 69 123 98
f 98 123 118
f 99 124 89
f 120 87 89
f 119 124 99
